<svg xmlns="http://www.w3.org/2000/svg" width="120" height="36"><path d="M27.105 8.832v11.14a.68.68 0 0 1-.68.68h-3.507a.68.68 0 0 1-.68-.68V1.853c0-.38.305-.684.68-.684h3.246c.375 0 .68.305.68.684v2.55S28.004.766 31.449.766c0 0 3.406-.418 4.79 3.375 0 0 1.163-3.375 4.679-3.375 0 0 5.234-.313 5.234 5.113l.04 2.988v11.14a.68.68 0 0 1-.68.684h-3.508a.68.68 0 0 1-.68-.683l-.031-12.153c.102-2.75-2.121-2.55-2.121-2.55-2.793.047-2.524 3.562-2.524 3.562v11.14a.68.68 0 0 1-.68.684h-3.511a.68.68 0 0 1-.68-.683V8.128s.207-2.85-2.289-2.85c0 0-2.468-.325-2.383 3.554m90.438-.035v11.14a.68.68 0 0 1-.68.68l-3.652.07a.677.677 0 0 1-.676-.68V8.13s.203-2.852-2.293-2.852c0 0-2.383-.117-2.383 4.356v10.34a.68.68 0 0 1-.68.68h-3.507a.68.68 0 0 1-.68-.68V1.852c0-.375.305-.684.68-.684h3.246c.375 0 .68.305.68.684v2.55s1.16-3.636 4.605-3.636c0 0 3.688-.563 4.93 3.304.004 0 .41.797.41 4.727M92.211.687c-4.488 0-8.125 3.793-8.125 10.172 0 5.614 2.805 10.168 8.125 10.168 5.016 0 8.121-4.554 8.121-10.168 0-6.27-3.637-10.171-8.121-10.171m2.832 10.395c0 2.402-.3 3.68-.3 3.68-.427 2.539-2.266 2.543-2.536 2.527-.293.012-2.148-.016-2.531-2.527 0 0-.301-1.278-.301-3.68v-.398c0-2.403.3-3.68.3-3.68.384-2.512 2.24-2.54 2.532-2.527.27-.016 2.11-.012 2.535 2.527 0 0 .301 1.277.301 3.68ZM82.051 4.379V1.777a.68.68 0 0 0-.68-.68H69.773a.68.68 0 0 0-.68.68v2.578c0 .38.305.684.68.684h6.051l-7.16 10.41s-.281.422-.277.89v3.165s-.043 1.086 1.183.457c0 0 2.184-1.32 5.844-1.32 0 0 3.613-.047 6.023 1.433 0 0 .997.457.997-.547v-2.754s.093-.73-.864-1.187c0 0-2.77-1.527-6.41-1.274ZM19.53 17.41l-1.101-1.676c-.348-.625-.32-1.324-.32-1.324V6.68C18.257 0 10.87.578 10.87.578 4.305.578 3.332 5.7 3.332 5.7c-.273 1.031.52 1.055.52 1.055l3.21.328s.547.121.747-.527c0 0 .421-2.239 2.789-2.239 2.57 0 2.543 2.215 2.543 2.215v1.852C8.008 8.555 5.629 9.98 5.629 9.98c-3.172 1.801-2.973 5.38-2.973 5.38 0 5.831 5.543 5.578 5.543 5.578 3.543 0 5.64-2.602 5.64-2.602.626 1.102 1.774 2.152 1.774 2.152.575.625 1.172.102 1.172.102l2.594-2.227c.574-.425.152-.953.152-.953m-9.601-.07c-1.668 0-2.29-1.66-2.012-3.293.277-1.633 1.719-2.914 5.223-2.875v.988c.125 4.336-1.825 5.18-3.211 5.18m56.222.07-1.097-1.676c-.348-.625-.325-1.324-.325-1.324V6.68C64.88 0 57.492.578 57.492.578c-6.566 0-7.539 5.121-7.539 5.121-.273 1.031.524 1.055.524 1.055l3.21.328s.543.121.743-.527c0 0 .425-2.239 2.789-2.239 2.57 0 2.543 2.215 2.543 2.215v1.852c-5.133.172-7.512 1.597-7.512 1.597-3.168 1.801-2.969 5.38-2.969 5.38 0 5.831 5.54 5.578 5.54 5.578 3.546 0 5.64-2.602 5.64-2.602.625 1.102 1.773 2.152 1.773 2.152.575.625 1.172.102 1.172.102l2.598-2.227c.574-.425.148-.953.148-.953m-9.601-.07c-1.668 0-2.285-1.66-2.008-3.293.273-1.633 1.715-2.914 5.219-2.875v.988c.125 4.336-1.82 5.18-3.211 5.18m0 0" style="stroke:none;fill-rule:nonzero;fill:#000;fill-opacity:1"/><path d="M74.984 32.043s-.293.512.07.625c0 0 .407.16.915-.313 0 0 3.703-3.242 3.793-9.148 0 0 .027-.738-.266-.937 0 0-1.16-1.032-5.336-.72 0 0-3.637.247-5.62 2.012 0 0-.18.16-.18.36 0 0-.044.433 1.046.246 0 0 3.64-.516 5.805-.246 0 0 1.117.133 1.426.515 0 0 .515.426.246 1.833 0 0-.738 3.582-1.899 5.773m0 0" style="stroke:none;fill-rule:nonzero;fill:#f3971b;fill-opacity:1"/><path d="M74.254 26.375s.543.707-.336 1.316c0 0-9.363 7.508-25.086 7.508 0 0-16.187.801-29.703-11.508 0 0-.473-.418-.176-.804 0 0 .262-.356.942.031 0 0 12.714 7.941 29.41 7.941 0 0 11.605.45 23.511-4.652 0 0 .95-.492 1.438.168m0 0" style="stroke:none;fill-rule:nonzero;fill:#f3971b;fill-opacity:1"/></svg>