<?xml version="1.0" ?>
<svg xmlns="http://www.w3.org/2000/svg" version="1.2" baseProfile="tiny" width="200" height="200" viewBox="0 0 200 200">
	<path d="M 157.00,153.00 L 156.00,153.00 L 155.00,153.00 L 154.00,153.00 L 153.00,153.00 L 152.00,153.00 L 151.00,153.00 L 150.00,153.00 L 149.00,153.00 L 148.00,153.00 L 147.00,153.00 L 146.00,153.00 L 145.00,153.00 L 144.00,153.00 L 143.00,153.00 L 142.00,153.00 L 141.00,153.00 L 140.00,153.00 L 139.00,153.00 L 138.00,153.00 L 137.00,153.00 L 136.00,153.00 L 135.00,153.00 L 134.00,153.00 L 133.00,153.00 L 132.00,153.00 L 131.00,153.00 L 130.00,153.00 L 129.00,153.00 L 128.00,153.00 L 127.00,153.00 L 126.00,153.00 L 125.00,153.00 L 124.00,153.00 L 123.00,153.00 L 122.00,153.00 L 121.00,153.00 L 120.00,153.00 L 119.00,153.00 L 118.00,153.00 L 117.00,153.00 L 116.00,153.00 L 115.00,153.00 L 114.00,153.00 L 113.00,153.00 L 112.00,153.00 L 111.00,153.00 L 110.00,153.00 L 109.00,153.00 L 108.00,153.00 L 107.00,153.00 L 106.00,153.00 L 105.00,153.00 L 104.00,153.00 L 103.00,153.00 L 102.00,153.00 L 101.00,153.00 L 100.00,153.00 L 99.00,153.00 L 98.00,153.00 L 97.00,153.00 L 96.00,153.00 L 95.00,153.00 L 94.00,153.00 L 93.00,153.00 L 92.00,153.00 L 91.00,153.00 L 90.00,153.00 L 89.00,153.00 L 88.00,153.00 L 87.00,153.00 L 86.00,153.00 L 85.00,153.00 L 84.00,153.00 L 83.00,153.00 L 82.00,153.00 L 81.00,153.00 L 80.00,153.00 L 79.00,153.00 L 78.00,153.00 L 77.00,153.00 L 76.00,153.00 L 75.00,153.00 L 74.00,153.00 L 73.00,153.00 L 72.00,153.00 L 71.00,153.00 L 70.00,153.00 L 69.00,153.00 L 68.00,153.00 L 67.00,153.00 L 66.00,153.00 L 65.00,153.00 L 64.00,153.00 L 63.00,153.00 L 62.00,153.00 L 61.00,153.00 L 60.00,153.00 L 59.00,153.00 L 58.00,153.00 L 57.00,153.00 L 56.00,153.00 L 55.00,153.00 L 54.00,153.00 L 53.00,153.00 L 52.00,153.00 L 51.00,153.00 L 50.00,153.00 L 49.00,153.00 L 48.00,153.00 L 47.00,153.00 L 46.00,153.00 L 45.00,153.00 L 44.00,153.00 L 43.00,153.00 L 42.00,153.00 L 41.00,152.00 L 41.00,152.00 L 40.00,152.00 L 39.00,151.00 L 39.00,151.00 L 38.00,150.00 L 38.00,150.00 L 37.00,149.00 L 37.00,149.00 L 36.00,148.00 L 36.00,147.00 L 36.00,146.00 L 36.00,145.00 L 36.00,144.00 L 36.00,143.00 L 36.00,142.00 L 36.00,141.00 L 37.00,140.00 L 37.00,140.00 L 37.00,139.00 L 38.00,138.00 L 38.00,138.00 L 39.00,137.00 L 39.00,137.00 L 40.00,136.00 L 40.00,136.00 L 41.00,135.00 L 41.00,135.00 L 42.00,134.00 L 42.00,134.00 L 42.00,133.00 L 43.00,132.00 L 43.00,132.00 L 44.00,131.00 L 44.00,131.00 L 45.00,130.00 L 45.00,130.00 L 46.00,129.00 L 46.00,129.00 L 46.00,128.00 L 47.00,127.00 L 47.00,127.00 L 48.00,126.00 L 48.00,126.00 L 48.00,125.00 L 49.00,124.00 L 49.00,124.00 L 49.00,123.00 L 50.00,122.00 L 50.00,122.00 L 50.00,121.00 L 50.00,120.00 L 51.00,119.00 L 51.00,119.00 L 51.00,118.00 L 51.00,117.00 L 52.00,116.00 L 52.00,116.00 L 52.00,115.00 L 52.00,114.00 L 52.00,113.00 L 53.00,112.00 L 53.00,112.00 L 53.00,111.00 L 53.00,110.00 L 53.00,109.00 L 53.00,108.00 L 53.00,107.00 L 54.00,106.00 L 54.00,106.00 L 54.00,105.00 L 54.00,104.00 L 54.00,103.00 L 54.00,102.00 L 54.00,101.00 L 54.00,100.00 L 54.00,99.00 L 55.00,98.00 L 55.00,98.00 L 55.00,97.00 L 55.00,96.00 L 55.00,95.00 L 55.00,94.00 L 55.00,93.00 L 55.00,92.00 L 55.00,91.00 L 55.00,90.00 L 56.00,89.00 L 56.00,89.00 L 56.00,88.00 L 56.00,87.00 L 56.00,86.00 L 56.00,85.00 L 56.00,84.00 L 56.00,83.00 L 56.00,82.00 L 56.00,81.00 L 56.00,80.00 L 56.00,79.00 L 56.00,78.00 L 56.00,77.00 L 57.00,76.00 L 57.00,76.00 L 57.00,75.00 L 57.00,74.00 L 57.00,73.00 L 57.00,72.00 L 57.00,71.00 L 58.00,70.00 L 58.00,70.00 L 58.00,69.00 L 58.00,68.00 L 58.00,67.00 L 59.00,66.00 L 59.00,66.00 L 59.00,65.00 L 60.00,64.00 L 60.00,64.00 L 60.00,63.00 L 61.00,62.00 L 61.00,62.00 L 61.00,61.00 L 62.00,60.00 L 62.00,60.00 L 62.00,59.00 L 63.00,58.00 L 63.00,58.00 L 64.00,57.00 L 64.00,57.00 L 65.00,56.00 L 65.00,56.00 L 66.00,55.00 L 66.00,55.00 L 67.00,54.00 L 67.00,54.00 L 67.00,53.00 L 68.00,52.00 L 68.00,52.00 L 69.00,51.00 L 69.00,51.00 L 70.00,50.00 L 71.00,50.00 L 71.00,50.00 L 72.00,49.00 L 72.00,49.00 L 73.00,48.00 L 73.00,48.00 L 74.00,47.00 L 74.00,47.00 L 75.00,46.00 L 76.00,46.00 L 76.00,46.00 L 77.00,45.00 L 77.00,45.00 L 78.00,44.00 L 79.00,44.00 L 79.00,44.00 L 80.00,43.00 L 81.00,43.00 L 81.00,43.00 L 82.00,42.00 L 83.00,42.00 L 83.00,42.00 L 84.00,41.00 L 85.00,41.00 L 86.00,41.00 L 86.00,41.00 L 87.00,40.00 L 88.00,40.00 L 88.00,40.00 L 89.00,39.00 L 90.00,39.00 L 91.00,39.00 L 92.00,39.00 L 92.00,39.00 L 93.00,38.00 L 94.00,38.00 L 95.00,38.00 L 96.00,38.00 L 97.00,38.00 L 98.00,38.00 L 99.00,38.00 L 100.00,38.00 L 101.00,38.00 L 102.00,38.00 L 103.00,38.00 L 104.00,38.00 L 105.00,38.00 L 106.00,38.00 L 107.00,39.00 L 107.00,39.00 L 108.00,39.00 L 109.00,39.00 L 110.00,39.00 L 111.00,40.00 L 111.00,40.00 L 112.00,40.00 L 113.00,40.00 L 114.00,41.00 L 114.00,41.00 L 115.00,41.00 L 116.00,42.00 L 116.00,42.00 L 117.00,42.00 L 118.00,43.00 L 118.00,43.00 L 119.00,43.00 L 120.00,44.00 L 120.00,44.00 L 121.00,44.00 L 122.00,45.00 L 122.00,45.00 L 123.00,46.00 L 123.00,46.00 L 124.00,46.00 L 125.00,47.00 L 125.00,47.00 L 126.00,48.00 L 126.00,48.00 L 127.00,49.00 L 127.00,49.00 L 128.00,49.00 L 129.00,50.00 L 129.00,50.00 L 130.00,51.00 L 130.00,51.00 L 131.00,52.00 L 131.00,52.00 L 132.00,53.00 L 132.00,53.00 L 133.00,54.00 L 133.00,55.00 L 133.00,55.00 L 134.00,56.00 L 134.00,56.00 L 135.00,57.00 L 135.00,57.00 L 136.00,58.00 L 136.00,58.00 L 137.00,59.00 L 137.00,60.00 L 137.00,60.00 L 138.00,61.00 L 138.00,61.00 L 139.00,62.00 L 139.00,63.00 L 139.00,63.00 L 140.00,64.00 L 140.00,65.00 L 140.00,66.00 L 140.00,66.00 L 141.00,67.00 L 141.00,68.00 L 141.00,69.00 L 141.00,69.00 L 142.00,70.00 L 142.00,71.00 L 142.00,72.00 L 142.00,73.00 L 142.00,73.00 L 143.00,74.00 L 143.00,75.00 L 143.00,76.00 L 143.00,77.00 L 143.00,78.00 L 143.00,79.00 L 143.00,80.00 L 143.00,81.00 L 143.00,82.00 L 143.00,83.00 L 143.00,84.00 L 143.00,85.00 L 143.00,85.00 L 144.00,86.00 L 144.00,87.00 L 144.00,88.00 L 144.00,89.00 L 144.00,90.00 L 144.00,91.00 L 144.00,92.00 L 144.00,93.00 L 144.00,94.00 L 144.00,95.00 L 144.00,95.00 L 145.00,96.00 L 145.00,97.00 L 145.00,98.00 L 145.00,99.00 L 145.00,100.00 L 145.00,101.00 L 145.00,102.00 L 145.00,103.00 L 145.00,104.00 L 145.00,104.00 L 146.00,105.00 L 146.00,106.00 L 146.00,107.00 L 146.00,108.00 L 146.00,109.00 L 146.00,110.00 L 146.00,111.00 L 146.00,111.00 L 147.00,112.00 L 147.00,113.00 L 147.00,114.00 L 147.00,115.00 L 147.00,115.00 L 148.00,116.00 L 148.00,117.00 L 148.00,118.00 L 148.00,119.00 L 148.00,119.00 L 149.00,120.00 L 149.00,121.00 L 149.00,121.00 L 150.00,122.00 L 150.00,123.00 L 150.00,123.00 L 151.00,124.00 L 151.00,125.00 L 151.00,125.00 L 152.00,126.00 L 152.00,127.00 L 152.00,127.00 L 153.00,128.00 L 153.00,129.00 L 153.00,129.00 L 154.00,130.00 L 154.00,130.00 L 155.00,131.00 L 155.00,131.00 L 156.00,132.00 L 156.00,132.00 L 157.00,133.00 L 157.00,133.00 L 158.00,134.00 L 158.00,134.00 L 159.00,135.00 L 159.00,135.00 L 160.00,136.00 L 160.00,136.00 L 161.00,137.00 L 161.00,138.00 L 161.00,138.00 L 162.00,139.00 L 162.00,140.00 L 162.00,140.00 L 163.00,141.00 L 163.00,142.00 L 163.00,143.00 L 163.00,144.00 L 163.00,145.00 L 163.00,146.00 L 163.00,147.00 L 163.00,148.00 L 162.00,149.00 L 162.00,149.00 L 162.00,150.00 L 161.00,151.00 L 160.00,151.00 L 160.00,151.00 L 159.00,152.00 L 158.00,152.00 L 158.00,152.00 L 157.00,153.00 Z" fill="#002F6C"/>
	<path d="M 131.00,130.00 L 132.00,129.00 L 132.00,129.00 L 133.00,128.00 L 133.00,128.00 L 133.00,127.00 L 133.00,126.00 L 133.00,125.00 L 133.00,124.00 L 133.00,124.00 L 132.00,123.00 L 132.00,123.00 L 131.00,123.00 L 130.00,122.00 L 130.00,122.00 L 129.00,121.00 L 129.00,121.00 L 128.00,120.00 L 128.00,120.00 L 127.00,120.00 L 126.00,119.00 L 126.00,119.00 L 125.00,118.00 L 125.00,118.00 L 124.00,117.00 L 124.00,117.00 L 123.00,116.00 L 123.00,116.00 L 122.00,116.00 L 121.00,115.00 L 121.00,115.00 L 120.00,114.00 L 120.00,114.00 L 119.00,113.00 L 119.00,113.00 L 118.00,112.00 L 118.00,112.00 L 117.00,112.00 L 116.00,111.00 L 116.00,111.00 L 115.00,110.00 L 115.00,110.00 L 114.00,110.00 L 113.00,109.00 L 113.00,109.00 L 112.00,109.00 L 111.00,108.00 L 111.00,108.00 L 110.00,108.00 L 109.00,108.00 L 108.00,108.00 L 107.00,108.00 L 106.00,108.00 L 105.00,108.00 L 104.00,108.00 L 103.00,108.00 L 103.00,108.00 L 102.00,109.00 L 101.00,109.00 L 101.00,109.00 L 100.00,110.00 L 99.00,110.00 L 98.00,110.00 L 98.00,110.00 L 97.00,111.00 L 96.00,111.00 L 95.00,111.00 L 94.00,111.00 L 93.00,110.00 L 93.00,110.00 L 92.00,110.00 L 91.00,109.00 L 91.00,109.00 L 90.00,108.00 L 90.00,108.00 L 89.00,107.00 L 89.00,107.00 L 88.00,107.00 L 87.00,106.00 L 87.00,106.00 L 86.00,105.00 L 86.00,105.00 L 85.00,104.00 L 85.00,104.00 L 84.00,103.00 L 84.00,103.00 L 83.00,102.00 L 83.00,102.00 L 82.00,102.00 L 81.00,101.00 L 81.00,101.00 L 80.00,100.00 L 80.00,100.00 L 79.00,99.00 L 79.00,99.00 L 78.00,98.00 L 78.00,98.00 L 77.00,97.00 L 77.00,97.00 L 76.00,96.00 L 76.00,96.00 L 75.00,95.00 L 75.00,95.00 L 74.00,95.00 L 73.00,94.00 L 73.00,94.00 L 72.00,93.00 L 72.00,93.00 L 71.00,93.00 L 70.00,93.00 L 70.00,93.00 L 69.00,94.00 L 68.00,94.00 L 68.00,94.00 L 68.00,95.00 L 67.00,96.00 L 67.00,96.00 L 67.00,97.00 L 67.00,97.00 L 68.00,98.00 L 68.00,99.00 L 68.00,99.00 L 69.00,100.00 L 69.00,100.00 L 70.00,101.00 L 70.00,101.00 L 71.00,101.00 L 72.00,102.00 L 72.00,102.00 L 73.00,103.00 L 73.00,103.00 L 74.00,104.00 L 74.00,104.00 L 75.00,105.00 L 75.00,105.00 L 76.00,106.00 L 76.00,106.00 L 77.00,107.00 L 77.00,107.00 L 78.00,108.00 L 78.00,108.00 L 79.00,108.00 L 80.00,109.00 L 80.00,109.00 L 81.00,110.00 L 81.00,110.00 L 82.00,111.00 L 82.00,111.00 L 83.00,112.00 L 83.00,112.00 L 84.00,113.00 L 84.00,113.00 L 85.00,113.00 L 86.00,114.00 L 86.00,114.00 L 87.00,115.00 L 87.00,115.00 L 88.00,116.00 L 88.00,116.00 L 89.00,116.00 L 90.00,117.00 L 90.00,117.00 L 91.00,117.00 L 92.00,117.00 L 93.00,118.00 L 93.00,118.00 L 94.00,118.00 L 95.00,118.00 L 96.00,118.00 L 97.00,118.00 L 98.00,118.00 L 99.00,118.00 L 99.00,118.00 L 100.00,117.00 L 101.00,117.00 L 102.00,117.00 L 102.00,117.00 L 103.00,116.00 L 104.00,116.00 L 104.00,116.00 L 105.00,115.00 L 106.00,115.00 L 107.00,115.00 L 108.00,115.00 L 109.00,115.00 L 110.00,116.00 L 110.00,116.00 L 111.00,116.00 L 112.00,117.00 L 112.00,117.00 L 113.00,118.00 L 113.00,118.00 L 114.00,118.00 L 115.00,119.00 L 115.00,119.00 L 116.00,120.00 L 116.00,120.00 L 117.00,121.00 L 117.00,121.00 L 118.00,122.00 L 118.00,122.00 L 119.00,122.00 L 120.00,123.00 L 120.00,123.00 L 121.00,124.00 L 121.00,124.00 L 122.00,125.00 L 122.00,125.00 L 123.00,126.00 L 123.00,126.00 L 124.00,126.00 L 125.00,127.00 L 125.00,127.00 L 126.00,128.00 L 126.00,128.00 L 127.00,129.00 L 127.00,129.00 L 128.00,129.00 L 129.00,130.00 L 129.00,130.00 L 130.00,130.00 L 131.00,130.00 L 131.00,130.00 Z" fill="#002F6C"/>
	<path d="M 103.00,175.00 L 102.00,175.00 L 101.00,175.00 L 100.00,175.00 L 99.00,175.00 L 98.00,175.00 L 97.00,175.00 L 96.00,175.00 L 95.00,175.00 L 94.00,174.00 L 94.00,174.00 L 93.00,174.00 L 92.00,173.00 L 92.00,173.00 L 91.00,173.00 L 90.00,172.00 L 90.00,172.00 L 89.00,172.00 L 88.00,171.00 L 88.00,171.00 L 87.00,170.00 L 87.00,170.00 L 86.00,169.00 L 86.00,169.00 L 85.00,168.00 L 85.00,167.00 L 85.00,167.00 L 84.00,166.00 L 84.00,166.00 L 83.00,165.00 L 83.00,164.00 L 83.00,164.00 L 82.00,163.00 L 82.00,162.00 L 82.00,161.00 L 82.00,160.00 L 82.00,159.00 L 83.00,158.00 L 84.00,158.00 L 85.00,158.00 L 86.00,158.00 L 87.00,158.00 L 88.00,158.00 L 89.00,158.00 L 90.00,158.00 L 91.00,158.00 L 92.00,158.00 L 93.00,158.00 L 94.00,158.00 L 95.00,158.00 L 96.00,158.00 L 97.00,158.00 L 98.00,158.00 L 99.00,158.00 L 100.00,158.00 L 101.00,158.00 L 102.00,158.00 L 103.00,158.00 L 104.00,158.00 L 105.00,158.00 L 106.00,158.00 L 107.00,158.00 L 108.00,158.00 L 109.00,158.00 L 110.00,158.00 L 111.00,158.00 L 112.00,158.00 L 113.00,158.00 L 114.00,158.00 L 115.00,158.00 L 116.00,158.00 L 117.00,159.00 L 117.00,160.00 L 117.00,161.00 L 117.00,162.00 L 116.00,163.00 L 116.00,163.00 L 116.00,164.00 L 116.00,165.00 L 115.00,166.00 L 115.00,166.00 L 114.00,167.00 L 114.00,167.00 L 114.00,168.00 L 113.00,169.00 L 113.00,169.00 L 112.00,170.00 L 112.00,170.00 L 111.00,171.00 L 110.00,171.00 L 110.00,171.00 L 109.00,172.00 L 109.00,172.00 L 108.00,173.00 L 107.00,173.00 L 107.00,173.00 L 106.00,174.00 L 105.00,174.00 L 104.00,174.00 L 104.00,174.00 L 103.00,175.00 Z" fill="#002F6C"/>
	<path d="M 109.00,40.00 L 108.00,40.00 L 107.00,39.00 L 107.00,39.00 L 106.00,39.00 L 105.00,39.00 L 104.00,39.00 L 103.00,39.00 L 102.00,39.00 L 101.00,39.00 L 100.00,39.00 L 99.00,39.00 L 98.00,39.00 L 97.00,39.00 L 96.00,39.00 L 95.00,39.00 L 94.00,39.00 L 93.00,39.00 L 92.00,39.00 L 92.00,39.00 L 91.00,40.00 L 90.00,40.00 L 89.00,39.00 L 89.00,38.00 L 89.00,37.00 L 89.00,37.00 L 88.00,36.00 L 88.00,35.00 L 88.00,34.00 L 88.00,33.00 L 89.00,32.00 L 89.00,32.00 L 89.00,31.00 L 89.00,30.00 L 90.00,29.00 L 90.00,29.00 L 90.00,28.00 L 91.00,27.00 L 91.00,27.00 L 92.00,26.00 L 92.00,26.00 L 93.00,25.00 L 93.00,25.00 L 94.00,24.00 L 95.00,24.00 L 95.00,24.00 L 96.00,23.00 L 97.00,23.00 L 98.00,23.00 L 99.00,23.00 L 100.00,23.00 L 101.00,23.00 L 102.00,23.00 L 103.00,23.00 L 104.00,24.00 L 104.00,24.00 L 105.00,24.00 L 106.00,25.00 L 106.00,25.00 L 107.00,26.00 L 107.00,26.00 L 108.00,27.00 L 108.00,27.00 L 109.00,28.00 L 109.00,29.00 L 109.00,29.00 L 110.00,30.00 L 110.00,31.00 L 110.00,31.00 L 111.00,32.00 L 111.00,33.00 L 111.00,34.00 L 111.00,35.00 L 111.00,36.00 L 111.00,37.00 L 110.00,38.00 L 110.00,38.00 L 110.00,39.00 L 109.00,40.00 Z" fill="#FF6A00"/>
</svg>
