<svg xmlns="http://www.w3.org/2000/svg" width="120" height="32"><defs><linearGradient id="a" x1="400.91" x2="400.91" y1="539.855" y2="-47.91" gradientTransform="matrix(1 0 0 -1 .14 706.454)" gradientUnits="userSpaceOnUse"><stop offset="0" style="stop-color:#f7e830;stop-opacity:1"/><stop offset="1" style="stop-color:#fdcb06;stop-opacity:1"/></linearGradient><linearGradient id="c" x1="564.459" x2="564.626" y1="518.642" y2="490.809" gradientTransform="matrix(1 0 0 -1 .14 706.454)" gradientUnits="userSpaceOnUse"><stop offset="0" style="stop-color:#fada1c;stop-opacity:1"/><stop offset="1" style="stop-color:#fdcb06;stop-opacity:1"/></linearGradient><linearGradient id="d" x1="2320.231" x2="2320.398" y1="519.975" y2="492.142" gradientTransform="rotate(180 1278.723 353.227)" gradientUnits="userSpaceOnUse"><stop offset="0" style="stop-color:#fada1c;stop-opacity:1"/><stop offset="1" style="stop-color:#fdcb06;stop-opacity:1"/></linearGradient><clipPath id="e"><path d="M96.715 6.086h14.926v7.812H96.715Zm0 0"/></clipPath><clipPath id="f"><path d="M111.375 7.04a.44.44 0 0 1-.043-.224l-.035.004c-.055-.199-.219-.386-.434-.398-.16-.012-.363-.008-.457.144-.176.243-.094.555-.101.829 0 .02.004.05.004.066 0 .187-.024.367-.055.547a.44.44 0 0 0-.04.176c-.077.421-.23.843-.433 1.222a.5.5 0 0 0-.086.176 5 5 0 0 1-.46.668c-.028.023-.047.05-.07.078-.118.145-.243.266-.372.39-.031.016-.055.04-.082.06a2.8 2.8 0 0 1-.504.398c-.023.015-.043.035-.074.05-1.145.762-2.535 1.079-3.887 1.09a7.24 7.24 0 0 1-3.348-.71l-.078-.036c-.175-.093-.355-.175-.515-.293-.035-.02-.075-.043-.114-.058a4 4 0 0 1-.468-.332c-.051-.047-.102-.082-.157-.121a3.5 3.5 0 0 1-.464-.43c-.036-.04-.075-.074-.11-.113a4.44 4.44 0 0 1-1.066-1.805c-.196-.535-.168-1.121-.192-1.684-.16-.25-.5-.39-.77-.238-.109.086-.12.23-.206.336-.14 1.488.492 2.969 1.496 4.04 0 .034.02.058.05.073.18.168.352.336.532.5a.6.6 0 0 0 .11.09c.179.149.367.281.558.422.035.027.07.047.11.07.245.145.48.317.741.418.02.012.051.035.07.043.848.41 1.766.688 2.704.782.101 0 .207.007.308.03.45.028.895.012 1.344.005 1.38-.125 2.809-.461 3.961-1.282l.016.02a2 2 0 0 1 .101-.086c.184-.133.364-.281.543-.426q.06-.048.125-.11c.196-.214.422-.413.59-.663l.024.015c.015-.023.039-.066.054-.09q.224-.31.422-.64a.4.4 0 0 0 .04-.047l-.016-.02c.011-.019.043-.054.058-.074.246-.504.465-1.03.54-1.59a.075.075 0 0 0 .05-.07c.004-.18.066-.351.05-.531.04-.219.044-.445.036-.672m0 0"/></clipPath><radialGradient id="b" cx="397.845" cy="271.776" r="478.08" fx="397.845" fy="271.776" gradientTransform="matrix(1 0 0 -1 .14 706.454)" gradientUnits="userSpaceOnUse"><stop offset=".596" style="stop-color:#f29405;stop-opacity:1"/><stop offset=".736" style="stop-color:#f7d01e;stop-opacity:1"/><stop offset="1" style="stop-color:#fdcb06;stop-opacity:1"/></radialGradient></defs><path d="M757.273 169.623c-.262-1.04-.61-1.995-.96-3.036-236.946.087-473.718 0-710.49.087-.61.694-1.047 1.474-1.134 2.342 0 183.618 0 367.324-.088 550.942 1.485 9.801 6.9 18.735 14.062 25.414.349.173 1.048.26 1.31.26 3.755 3.99 8.995 5.898 14.06 7.633 3.669-.174 7.25 1.387 11.005 1.04h293.978c2.794-.086 5.677.347 8.384-.693.087-.434.175-1.128.262-1.562.175-.433.262-1.56.35-2.168 6.288-35.128 12.401-70.516 19.039-105.644l.699-4.51c-27.25-.173-54.586 0-81.748-.173-6.638-.087-13.363 0-20-.781-11.267-.52-22.708-.087-33.975-1.214-13.973 0-27.947-1.301-41.921-1.301-11.005-1.041-22.097-.607-33.189-1.128-7.161-.954-14.585-.52-21.921-.78-11.878-1.301-23.93-.434-35.896-1.735-12.576.087-25.24-1.041-37.817-1.301.087-.087.175-.52.175-.607 4.28.086 8.297-.174 12.576-.26 9.258-1.215 18.69-.434 27.948-1.735 9.695 0 19.302-1.301 28.996-1.301 8.647-1.215 17.293-.52 25.94-1.648 10.13 0 20-1.301 30.043-1.475 8.297-1.04 16.682-.52 25.066-1.561 9.695.087 19.302-1.474 28.996-1.301 9.52-1.128 19.214-.78 28.647-1.821-.874-3.73-1.572-7.46-2.358-11.103-.699-2.341-3.494-1.821-5.328-2.081-21.66-3.123-43.32-6.245-64.891-9.194 1.397-1.128 3.318-.607 4.89-.868 16.857-1.3 33.538-2.775 50.307-3.99 3.755-.173 7.51-.867 11.266-.953-1.66-5.205-2.707-10.93-4.978-15.7-35.896-5.55-71.791-10.408-107.6-16.306 9.346-1.561 18.69-2.168 28.036-3.209l.786-.347c29.694-3.122 59.476-6.592 89.171-9.454 37.73-.174 75.372-.087 113.015 0 1.222-.174 3.318.347 3.493-1.301 3.144-16.22 6.114-32.44 9.258-48.572 4.28-22.551 11.004-44.755 21.572-65.225 16.507-33.046 42.62-60.975 74.412-79.623 29.694-17.434 64.105-25.76 98.254-27.408a158.7 158.7 0 0 1 33.363.694c7.161 1.735 14.585 3.73 20.262 8.673 4.716 3.73 7.511 9.368 9.607 15.006 4.542 13.27 7.162 27.06 9.345 40.939.175 5.637 1.136 11.882-1.834 17-2.795 5.03-8.384 7.459-13.712 8.933-19.301 5.031-39.476.26-58.865 5.031-15.808 3.383-30.656 12.143-40.7 24.806-11.965 14.832-18.253 33.22-21.746 51.695-2.708 16.306-6.114 32.786-8.821 49.265 19.04.087 38.166-.087 57.206.087 7.598 0 15.37 4.163 18.515 11.362 4.018 9.194 3.057 19.69 1.834 29.317-1.572 10.928-4.192 21.684-9.083 31.745-4.192 8.5-10.917 16.306-20.262 19.342-4.804 1.821-9.957 1.388-15.11 1.388-16.768 0-33.624.26-50.393 0-2.708 12.316-4.454 24.893-6.9 37.47-4.367 24.285-8.646 48.658-13.1 73.117a40 40 0 0 0-.175 3.383c7.86.347 15.808 0 23.668.173 58.604 0 117.294-.086 176.072 0 6.289.174 12.664-1.3 18.166-4.336 3.32-1.215 5.24-4.164 8.21-5.812 2.795-1.561 3.581-4.857 5.94-6.939 2.62-4.597 5.327-9.454 5.589-14.831.262 0 1.048-.087 1.397-.174-.262-183.965 0-368.018-.175-551.983Zm0 0" style="fill-rule:nonzero;fill:url(#a);stroke-width:.094;stroke-linecap:butt;stroke-linejoin:miter;stroke:#fcd109;stroke-opacity:1;stroke-miterlimit:4" transform="matrix(.04473 0 0 .04504 86.118 -2.038)"/><path d="M137.877 48.54c8.472-2.602 17.38-.867 26.114-1.387 163.321.086 326.642 0 489.875 0 9.695-.434 18.166 5.03 27.25 7.806 7.161 2.949 14.672 5.204 21.921 8.326 1.485.608 2.533 1.909 3.668 3.036-.087 13.184 0 26.454 0 39.812.087 3.47-.524 7.025.699 10.408 2.096.347 3.231 1.995 4.629 3.296 6.55 2.949 12.227 7.806 18.166 11.883 8.996 6.418 18.603 11.97 27.424 18.561.35 2.602.087 5.29-.699 7.72-.873 2.775-.35 5.81-.611 8.586-236.946.087-473.718 0-710.49.087-.523-3.296.438-6.592-1.047-9.628-.175-2.602-1.048-5.984 1.485-7.893 9.956-6.938 20.524-13.27 30.393-20.643a636 636 0 0 0 17.817-11.97c1.223-1.907.786-4.423.786-6.591 0-14.571 0-29.056.175-43.541 3.318-4.424 9.257-4.944 13.973-7.112 9.52-3.556 19.127-7.113 28.472-10.756m.612 1.735c-12.839 4.944-25.677 9.628-38.516 14.485-1.66.347-2.533 1.821-3.493 3.122.087.781.174 2.256.174 3.036-.087 11.97 0 23.94-.087 35.995.087 3.036-.262 5.985.873 8.674-1.31 1.3-2.707 2.602-4.367 3.556-14.498 9.454-28.472 19.602-42.97 28.97-2.532 1.474-5.327 3.469-4.541 6.765-.437 1.821.437 3.296 2.358 2.775 31.354-.173 62.708.26 94.062-.26 46.726 0 93.276.087 140.002 0l.699-.26c2.096.434 4.192.26 6.375.26 84.63 0 169.26.087 253.89 0 26.638.087 53.363 0 80.088 0 44.018 0 88.036.434 132.054.174 1.31-.26 1.747-1.215 1.223-2.776-.175-1.561.524-3.73-1.223-4.857-6.987-3.21-13.013-8.327-19.738-12.316-2.358-1.995-5.415-3.123-7.25-5.812-6.899-3.903-13.362-8.673-20.087-13.01-1.31-.78-2.27-2.082-3.406-3.21.611-2.08.786-4.336.786-6.591-.087-12.663 0-25.413-.087-38.077.262-1.995.174-4.337-1.66-5.638-11.965-4.336-23.843-8.847-35.72-13.27-3.756-1.822-7.861-2.776-11.791-3.47H144.952c-2.184.174-4.28 1.302-6.463 1.735Zm0 0" style="fill-rule:nonzero;fill:#f8f3b5;fill-opacity:1;stroke-width:.094;stroke-linecap:butt;stroke-linejoin:miter;stroke:#f8f3b5;stroke-opacity:1;stroke-miterlimit:4" transform="matrix(.04473 0 0 .04504 86.118 -2.038)"/><path d="M96.654 70.918c8.821 3.643 18.254 5.811 27.162 9.368 4.804 1.908 6.288 7.112 8.384 11.362-2.096 2.082-4.628 3.73-7.074 5.377-9.258 6.159-18.603 12.143-27.686 18.562-1.135-2.689-.786-5.638-.873-8.674.087-12.056 0-24.025.087-35.995Zm581.492 9.368c8.908-3.47 18.253-5.898 27.162-9.368.087 12.664 0 25.414.087 38.077 0 2.255-.175 4.51-.786 6.592-7.86-5.378-15.72-10.495-23.494-15.786-3.843-2.776-8.035-4.944-11.44-8.327 2.183-4.163 3.667-9.28 8.47-11.188Zm0 0" style="fill-rule:nonzero;fill:#f7b402;fill-opacity:1;stroke-width:.094;stroke-linecap:butt;stroke-linejoin:miter;stroke:#f7b402;stroke-opacity:1;stroke-miterlimit:4" transform="matrix(.04473 0 0 .04504 86.118 -2.038)"/><path d="M249.32 84.449c11.004-2.602 23.319 7.199 22.358 18.648.087 11.276-11.79 20.556-22.708 17.867-4.366-1.474-8.559-3.73-11.266-7.632-3.494-5.378-4.28-12.403-1.485-18.215 2.009-5.637 7.337-9.454 13.1-10.668Zm285.243 6.245c4.63-5.03 11.966-7.98 18.69-6.245 5.153 1.561 10.132 4.857 12.315 9.888 4.454 8.586 1.048 20.122-7.598 24.72-7.599 4.163-17.206 2.168-22.97-3.904-5.939-6.765-6.288-17.78-.437-24.46Zm0 0" style="fill-rule:nonzero;fill:#bda727;fill-opacity:1;stroke-width:.094;stroke-linecap:butt;stroke-linejoin:miter;stroke:#bda727;stroke-opacity:1;stroke-miterlimit:4" transform="matrix(.04473 0 0 .04504 86.118 -2.038)"/><path d="M125.126 97.025c2.446-1.647 4.978-3.295 7.074-5.377l.7.607c.698 5.29.174 10.582.436 15.7-.35 15.698.262 31.31-.437 46.923-29.083 0-58.254-.174-87.337 0-.786-3.296 2.009-5.29 4.541-6.765 14.498-9.368 28.472-19.516 42.97-28.97 1.66-.954 3.057-2.255 4.367-3.556 9.083-6.419 18.428-12.403 27.686-18.562Zm543.587-1.994c0-1.301.262-2.429.961-3.557 3.406 3.383 7.598 5.551 11.441 8.327 7.773 5.29 15.634 10.408 23.494 15.786 1.135 1.127 2.096 2.428 3.406 3.209 6.725 4.337 13.188 9.107 20.088 13.01 1.834 2.69 4.89 3.817 7.249 5.812 6.725 3.99 12.751 9.107 19.738 12.316 1.747 1.128 1.048 3.296 1.223 4.857-29.084.087-58.08-.087-87.25.087-.524-3.99-.175-7.98-.262-11.883 0-15.96-.262-32.005-.088-47.964Zm0 0" style="fill-rule:nonzero;fill:#f7e62d;fill-opacity:1;stroke-width:.094;stroke-linecap:butt;stroke-linejoin:miter;stroke:#f7e62d;stroke-opacity:1;stroke-miterlimit:4" transform="matrix(.04473 0 0 .04504 86.118 -2.038)"/><path d="M756.313 154.791c-29.084.087-58.08-.087-87.25.087-.524-3.99-.175-7.98-.262-11.883 0-15.96-.262-32.005-.088-47.964 0-1.301.262-2.429.961-3.557 2.184-4.163 3.668-9.28 8.472-11.188 8.908-3.47 18.253-5.898 27.162-9.368.262-1.995.174-4.337-1.66-5.638-11.965-4.336-23.843-8.847-35.72-13.27-3.756-1.822-7.861-2.776-11.791-3.47H144.952c-2.184.174-4.28 1.302-6.463 1.735-12.839 4.944-25.677 9.628-38.516 14.485-1.66.347-2.533 1.821-3.493 3.122.087.781.174 2.256.174 3.036 8.821 3.643 18.254 5.811 27.162 9.368 4.804 1.908 6.288 7.112 8.384 11.362l.7.607c.698 5.29.174 10.582.436 15.7-.35 15.698.262 31.31-.437 46.923-29.083 0-58.254-.174-87.337 0-.524 1.821.437 3.296 2.358 2.775 31.354-.173 62.708.26 94.062-.26 46.726 0 93.276.087 140.002 0l.699-.26c2.096.434 4.192.26 6.375.26 84.63 0 169.26.087 253.89 0 26.638.087 53.363 0 80.088 0 44.018 0 88.036.434 132.054.174 1.31-.26 1.747-1.215 1.223-2.776ZM236.219 95.117c2.009-5.637 7.337-9.454 13.1-10.668 11.005-2.602 23.32 7.199 22.36 18.648.086 11.276-11.791 20.556-22.709 17.867-4.366-1.474-8.559-3.73-11.266-7.632-3.494-5.378-4.28-12.403-1.485-18.215Zm298.344-4.423c4.63-5.03 11.966-7.98 18.69-6.245 5.153 1.561 10.132 4.857 12.315 9.888 4.454 8.586 1.048 20.122-7.598 24.72-7.599 4.163-17.206 2.168-22.97-3.904-5.939-6.765-6.288-17.78-.437-24.46Zm0 0" style="fill-rule:nonzero;fill:url(#b);stroke-width:.094;stroke-linecap:butt;stroke-linejoin:miter;stroke:#fcd109;stroke-opacity:1;stroke-miterlimit:4" transform="matrix(.04473 0 0 .04504 86.118 -2.038)"/><path d="M560.066 198.766c1.397.26-7.25-8.327-5.59-8.76 1.66.173 7.686-4.51 15.022-.694 7.337 3.903 5.503 12.837 4.716 16.22-.96 3.99-3.58 6.418-5.502 8.5-1.135.867-3.668 2.254-5.065 2.168.873-4.857-2.096-5.725-2.271-10.669Zm0 0" style="fill-rule:nonzero;fill:url(#c);stroke-width:.094;stroke-linecap:butt;stroke-linejoin:miter;stroke:#fcd109;stroke-opacity:1;stroke-miterlimit:4" transform="matrix(.04473 0 0 .04504 86.118 -2.038)"/><path d="M240.411 204.144c-.174 5.03-3.056 5.81-2.183 10.668-1.572.173-4.018-1.301-5.066-2.168-2.008-1.995-4.541-4.51-5.502-8.5-.873-3.296-2.707-12.317 4.629-16.133 7.336-3.817 13.45.867 15.022.607 1.66.434-6.987 9.107-5.59 8.76Zm0 0" style="fill-rule:nonzero;fill:url(#d);stroke-width:.094;stroke-linecap:butt;stroke-linejoin:miter;stroke:#fcd109;stroke-opacity:1;stroke-miterlimit:4" transform="matrix(.04473 0 0 .04504 86.118 -2.038)"/><path d="M546.965 262.777c1.572-1.301 2.533-1.301 4.542-1.301-12.053 26.02-26.027 52.04-47.075 72.25-2.27 1.995-4.629 3.903-7.074 5.638s-4.804 3.383-7.162 5.117c-2.27 1.561-4.542 3.123-6.812 4.77-5.677 3.123-10.655 7.46-17.031 9.368-11.441 5.464-23.843 9.194-36.332 11.796-4.979.78-9.87 1.995-14.935 2.082-6.201 1.821-12.751.52-19.127.954-3.493.52-6.55-1.475-9.956-1.041-2.97-.434-5.852-.954-8.821-1.475-2.97-.607-5.94-1.3-8.821-2.168-45.853-14.224-90.831-49.266-104.02-96.623-.523-3.122-.873-6.418-.873-9.628 1.398 2.776 2.883 5.551 4.367 8.327 18.69 40.679 55.634 72.684 99.39 82.312 3.494 1.648 7.424 1.04 10.743 2.428 3.144 0 6.113-.086 9.17.868 10.218.26 20.612.173 30.83.173 1.397.087 2.708-.607 4.105-.954 17.205-.52 34.061-5.204 49.695-12.316 3.144-1.475 6.2-2.95 9.17-4.51 2.708-1.475 5.328-2.95 7.773-4.598 2.533-1.56 4.979-3.295 7.25-5.03 18.515-14.745 34.585-33.74 45.415-55.597 2.096-3.904 3.93-7.546 5.59-10.842Zm0 0" style="fill-rule:nonzero;fill:#bda727;fill-opacity:1;stroke-width:.094;stroke-linecap:butt;stroke-linejoin:miter;stroke:#bda727;stroke-opacity:1;stroke-miterlimit:4" transform="matrix(.04473 0 0 .04504 86.118 -2.038)"/><path d="M530.72 351.68c29.695-17.434 64.106-25.76 98.255-27.408a158.7 158.7 0 0 1 33.363.694c7.161 1.735 14.585 3.73 20.262 8.673-2.882.174-5.677-1.127-8.559-1.56-8.21-1.562-16.681-.955-25.066-1.215-24.105 0-48.385 1.995-71.704 8.5-12.227 3.73-24.367 8.066-35.459 14.485-19.214 10.581-36.507 24.546-50.48 41.372-24.98 28.71-39.74 65.052-46.813 102.175-3.407 19.862-7.337 39.724-10.394 59.673-5.065.52-10.13.26-15.109.26-22.009-.086-44.018-.26-66.027-.433-4.716.173-9.345-.867-13.974-.607-40 .26-80-.087-120.001-.087l.786-.347c29.694-3.122 59.476-6.592 89.171-9.454 37.73-.174 75.372-.087 113.015 0 1.222-.174 3.318.347 3.493-1.301 3.144-16.22 6.114-32.44 9.17-48.572 4.367-22.551 11.092-44.755 21.66-65.225 16.507-32.96 42.62-60.975 74.412-79.623Zm0 0" style="fill-rule:nonzero;fill:#0d69b3;fill-opacity:1;stroke-width:.094;stroke-linecap:butt;stroke-linejoin:miter;stroke:#0d69b3;stroke-opacity:1;stroke-miterlimit:4" transform="matrix(.04473 0 0 .04504 86.118 -2.038)"/><path d="M577.271 339.364c23.32-6.505 47.6-8.5 71.704-8.5 8.385.26 16.856-.347 25.066 1.214 2.882.434 5.677 1.735 8.559 1.561 4.716 3.73 7.511 9.368 9.607 15.006 4.542 13.27 7.162 27.06 9.345 40.939.175 5.637 1.136 11.882-1.834 17-2.795 5.03-8.384 7.459-13.712 8.933-19.301 5.031-39.476.26-58.865 5.031-15.896 3.383-30.656 12.143-40.7 24.806-11.965 14.832-18.253 33.307-21.746 51.695-2.708 16.306-6.114 32.786-8.821 49.265-1.136 3.73-1.834 7.72-2.62 11.536 18.952.347 37.817 0 56.681.26 7.25-.26 14.498.174 21.66-.347 4.018 9.194 3.057 19.69 1.834 29.317-1.572 10.928-4.192 21.684-9.083 31.745-4.192 8.5-10.917 16.306-20.262 19.342-4.804 1.821-9.957 1.388-15.11 1.388-16.768 0-33.624.26-50.393 0-2.708 12.316-4.454 24.893-6.9 37.47-4.367 24.285-8.646 48.658-13.1 73.117a40 40 0 0 0-.175 3.383v.087c-43.669 0-87.337.086-131.006 0 .087-.434.175-1.128.262-1.562.175-.433.262-1.56.35-2.168.087.78.174 2.342.349 3.036 2.62.26 7.51 1.648 8.21-2.255 6.812-36.776 13.1-73.812 20.087-110.588-2.62-.607-5.415-.607-8.297-.087a40 40 0 0 1-1.31 4.25l.699-4.51c-27.25-.173-54.586 0-81.748-.173-6.638-.174-13.363 0-20-.781-11.267-.52-22.708-.087-33.975-1.214-13.973 0-27.947-1.301-41.921-1.301-11.005-1.041-22.097-.607-33.189-1.128-7.161-.954-14.585-.52-21.921-.78-11.878-1.301-23.93-.434-35.896-1.735-12.576.087-25.24-1.041-37.817-1.301.087-.087.175-.52.175-.607 4.28.086 8.384-.174 12.576-.26 9.258-1.215 18.69-.434 27.948-1.735 9.695 0 19.302-1.301 28.996-1.301 8.647-1.215 17.293-.52 25.94-1.648 10.13 0 20-1.301 30.043-1.475 8.297-1.04 16.77-.52 25.066-1.561 9.695.087 19.302-1.474 28.996-1.301 9.52-1.128 19.214-.78 28.647-1.821-.874-3.73-1.572-7.46-2.358-11.103-.699-2.341-3.494-1.821-5.328-2.081-21.66-3.123-43.32-6.245-64.891-9.194 1.397-1.128 3.318-.607 4.89-.868 16.857-1.3 33.538-2.775 50.307-3.99 3.755-.173 7.51-.867 11.266-.953-1.66-5.205-2.62-10.93-4.978-15.7-35.896-5.55-71.791-10.408-107.6-16.306 9.346-1.561 18.69-2.168 28.036-3.209 40 0 80 .26 120.001.087 4.63-.26 9.345.78 13.974.607 22.01.173 44.018.347 66.027.434 4.978 0 10.044.26 15.11-.26 3.144-19.95 6.986-39.812 10.393-59.674 7.074-37.123 21.834-73.465 46.812-102.175 13.974-16.826 31.267-30.79 50.481-41.46 11.092-6.33 23.232-10.668 35.46-14.397Zm0 0" style="fill-rule:nonzero;fill:#107bd4;fill-opacity:1;stroke-width:.094;stroke-linecap:butt;stroke-linejoin:miter;stroke:#107bd4;stroke-opacity:1;stroke-miterlimit:4" transform="matrix(.04473 0 0 .04504 86.118 -2.038)"/><path d="M555.874 546.314c19.04.087 38.166-.087 57.206.087 7.598 0 15.37 4.163 18.515 11.362-7.162.52-14.41.087-21.66.347-18.864-.26-37.73.087-56.681-.26.698-3.816 1.484-7.806 2.62-11.536ZM408.36 639.988c2.882-.52 5.677-.52 8.297.087-6.987 36.776-13.275 73.812-20.088 110.588-.698 3.903-5.59 2.515-8.21 2.255-.174-.694-.261-2.255-.349-3.036 6.289-35.128 12.402-70.516 19.04-105.644.524-1.387.96-2.862 1.31-4.25Zm0 0" style="fill-rule:nonzero;fill:#0d69b3;fill-opacity:1;stroke-width:.094;stroke-linecap:butt;stroke-linejoin:miter;stroke:#0d69b3;stroke-opacity:1;stroke-miterlimit:4" transform="matrix(.04473 0 0 .04504 86.118 -2.038)"/><path d="M564.695 201.542c-.874-1.475-.961-3.296-.961-4.944l-.786.086c-1.223-4.423-4.89-8.586-9.694-8.847-3.581-.26-8.123-.173-10.219 3.21-3.93 5.377-2.096 12.316-2.27 18.387 0 .434.087 1.128.087 1.475 0 4.163-.524 8.153-1.223 12.143-.524 1.214-.873 2.515-.873 3.903-1.747 9.367-5.153 18.735-9.695 27.148-.873 1.214-1.66 2.515-1.921 3.903-2.97 5.291-6.55 10.061-10.306 14.832-.611.52-1.048 1.127-1.572 1.735-2.62 3.209-5.415 5.898-8.297 8.673-.699.347-1.223.867-1.834 1.301-3.406 3.296-7.162 6.419-11.267 8.847-.524.347-.96.78-1.66 1.128-25.589 16.913-56.681 23.939-86.9 24.199-25.764.78-51.616-4.684-74.848-15.786a34 34 0 0 1-1.747-.78c-3.93-2.082-7.947-3.904-11.528-6.506-.786-.433-1.66-.954-2.533-1.3-3.668-2.256-7.162-4.598-10.48-7.373-1.136-1.041-2.271-1.822-3.494-2.689-3.668-2.949-7.336-5.985-10.393-9.54-.786-.868-1.66-1.649-2.445-2.516-10.918-11.276-19.39-25.067-23.844-40.072-4.366-11.883-3.755-24.893-4.28-37.383-3.58-5.55-11.178-8.673-17.205-5.29-2.445 1.907-2.707 5.117-4.628 7.459-3.145 33.046 11.004 65.918 33.45 89.684 0 .78.436 1.3 1.135 1.648 4.018 3.73 7.86 7.459 11.878 11.102.699.694 1.485 1.388 2.445 1.995 4.018 3.296 8.21 6.245 12.49 9.367.786.607 1.572 1.041 2.445 1.561 5.502 3.21 10.743 7.026 16.594 9.281.437.26 1.136.78 1.572.954 18.953 9.107 39.477 15.266 60.438 17.347 2.27 0 4.629.174 6.9.694 10.043.607 20 .26 30.043.087 30.83-2.776 62.796-10.235 88.56-28.45l.35.434c.786-.693 1.484-1.3 2.27-1.908 4.105-2.949 8.123-6.245 12.14-9.454.874-.694 1.834-1.561 2.795-2.429 4.367-4.77 9.433-9.193 13.188-14.745l.524.347c.35-.52.874-1.474 1.223-1.994a223 223 0 0 0 9.432-14.225c.262-.26.699-.78.874-1.04l-.35-.435c.262-.433.961-1.214 1.31-1.648 5.503-11.188 10.394-22.898 12.053-35.3.699-.261 1.135-.868 1.135-1.562.088-3.99 1.485-7.806 1.136-11.796.873-4.857.96-9.888.786-14.918Zm0 0" style="fill-rule:nonzero;fill:#fff;fill-opacity:1;stroke-width:.094;stroke-linecap:butt;stroke-linejoin:miter;stroke:#fff;stroke-opacity:1;stroke-miterlimit:4" transform="matrix(.04473 0 0 .04504 86.118 -2.038)"/><g clip-path="url(#e)"><g clip-path="url(#f)"><path d="M230.193 198.159c8.035 2.602 26.638-3.817 31.965 1.995m-27.336 22.638c7.773-2.69 24.454-9.108 31.354-5.291m-23.32 30.01c3.756 1.214 11.18-5.377 14.76-7.372 5.503-2.863 11.18-5.03 17.206-5.985m-20 39.378c3.843-5.551 8.472-10.148 14.061-14.051 5.59-3.817 20.787-14.225 27.337-10.669m-30.044 43.368c4.367-3.47 6.2-9.714 10.742-13.357 5.677-4.424 14.236-5.204 19.913-7.98m-11.878 35.128c1.398-9.628 11.18-21.337 20.525-20.47m-5.94 34c4.892-.52 9.084-11.622 12.49-15.352 4.978-5.637 10.218-7.372 16.769-9.28m-.612 36.689c-.349-7.113 6.9-27.148 15.284-26.02m6.027 32.612c-.35-8.24 3.93-33.133 13.974-34m8.035 47.357c-1.922-11.536-1.834-28.276 7.336-36.69m20 39.379c-1.048-9.628-10.655-29.143 0-36.69m29.346 30.011c-4.542-5.29-7.25-26.194-5.328-32.005m33.275 27.321c-3.493-6.418-7.86-12.403-9.17-19.862-.786-4.424.611-10.755-.175-14.138m32.752 24.026c-7.686-5.03-9.87-23.419-7.336-31.312m29.956 21.25c-5.415-11.622-11.266-20.643-11.354-33.913m33.363 12.663c-8.471-5.724-19.301-16.132-17.991-27.408m41.31 9.367c-12.838-2.862-28.21-14.398-35.983-24.632m46.638 2.602c-9.257-1.995-39.913-13.878-37.991-26.021m48.035 2.689c-12.926-4.684-31.703-8.934-42.009-17.954m48.647-3.383c-8.123.694-19.738-3.21-28.035-4.684-9.17-1.561-17.73-4.597-26.638-6.592m46.725-9.367c-15.72.954-30.393-4.424-44.717-9.367" style="fill:none;stroke-width:2;stroke-linecap:butt;stroke-linejoin:miter;stroke:#d1d1d1;stroke-opacity:1;stroke-miterlimit:4" transform="matrix(.04473 0 0 .04504 86.118 -2.038)"/></g></g><path d="M-1440.133 244.215c14.498-2.168 31.18-3.556 43.494 5.465 7.686 5.724 10.394 16.22 9.87 25.5.524 15.265-6.55 31.658-20.263 39.638-12.052 6.505-26.55 7.025-39.913 5.724-8.996-1.127-18.079-5.984-22.708-14.224-10.393-23.766 2.446-57.419 29.52-62.103Zm-433.63 17.26c.787-8.24 8.21-15.525 16.682-15.265 63.145 0 126.028.26 188.91 0 6.813-.607 14.237 2.429 17.556 8.413 4.628 8.24.524 17.26 0 25.76-1.922 11.45-1.398 26.715-14.848 31.139-45.94 1.388-91.791 0-137.73.52-4.368 29.057-8.472 57.766-12.84 86.389 0 1.127.263 3.556.263 4.683 33.625-.347 67.25 0 100.874-.347 9.345-.52 19.127 7.46 18.341 17.26-.873 10.149-3.057 19.95-4.367 30.098-1.135 6.852-6.55 13.097-13.712 14.485-37.467.867-75.46-.868-112.927.867-5.939 41.2-13.1 82.572-19.389 123.858-.786 8.153-7.423 15.265-15.546 15.526-15.633.26-31.18.26-46.812 0-10.132.26-18.254-10.93-15.547-20.47 16.682-107.725 33.887-215.19 51.093-322.915Zm277.82-14.744c14.237-1.128 28.735-.26 42.883-.52 8.734-.608 17.468 6.244 18.341 15.265 0 7.112-1.921 14.224-2.795 21.336-11.44 73.292-23.144 146.496-34.673 219.874-1.659 11.71-4.628 24.286-1.135 36.256 4.105 12.056 22.446 6.939 26.813 19.428 2.794 10.148-.262 20.817-1.048 31.225-.786 13.618-16.42 16.653-27.075 19.689-23.232 4.337-51.442 1.04-68.036-18.04-12.052-13.965-12.926-33.654-10.48-51.175 14.498-92.98 28.996-185.873 43.756-279.114.873-6.852 6.288-13.184 13.45-14.224Zm542.715 14.745c.786-8.24 8.21-15.266 16.332-15.266h41.572c10.48-.26 18.865 10.929 16.42 20.73-9.52 60.715-19.39 121.343-28.996 182.057 14.498-2.168 30.917-4.857 41.048-16.653 16.944-19.082 30.918-41.286 41.31-64.531 3.581-9.02 5.503-22.117 17.206-23.765 15.546-.52 31.442-.26 46.988 0 10.655-.26 18.602 11.796 15.022 21.597-4.018 14.484-10.83 27.842-17.992 40.765-15.895 25.674-33.363 51.087-56.332 71.297 10.13 30.444 22.97 59.934 34.148 89.684 3.32 9.888 11.267 21.337 3.843 30.964-8.471 11.45-24.367 5.725-36.07 7.026-12.315-1.301-30.044 4.944-36.944-9.02-12.838-29.75-23.493-60.368-36.594-90.205-7.686.26-15.633.52-23.232-.26-.524 1.127-1.66 3.296-2.183 4.423-4.105 27.322-8.472 54.643-12.839 81.965-1.66 6.592-6.9 12.316-13.974 12.837-14.498.607-29.258.26-44.018.26-6.288 0-12.052-4.077-14.76-9.54-2.707-5.465-1.135-11.71-.262-17.782 16.944-105.556 33.625-211.027 50.307-316.583Zm759.834 29.837c1.921-7.72 9.258-12.924 16.943-12.664 10.918.347 22.097-.26 33.363.347 8.996.26 16.07 9.28 15.022 18.041-1.66 15.526-5.502 31.138-6.637 46.75 10.742 0 21.66-.26 32.314 0 9.52 0 17.555 9.801 15.808 19.082-1.31 8.5-3.231 16.653-4.628 25.153-1.31 7.2-7.337 12.924-14.236 13.965-13.101.78-25.94-.52-38.778.78-5.502 36.69-11.529 73.378-17.206 109.98-.786 8.414-1.397 18.042 3.581 25.414 7.337 9.02 20.175 5.725 30.568 6.852 8.21 2.429 13.45 11.45 11.965 19.69-1.31 9.28-1.572 18.56-3.755 27.58-3.319 10.149-15.022 12.057-24.018 14.486-24.978 6.592-53.625 6.592-75.809-7.893-20.436-13.965-23.755-41.026-21.572-64.01 5.764-44.236 14.76-88.297 19.651-132.88-7.598.26-16.943 1.388-22.708-5.464-6.55-6.765-3.231-17-2.183-25.413 1.66-9.02 1.397-20.816 11.266-25.76 7.86-2.95 16.944-.781 25.416-1.822 5.24-17.52 10.13-35.04 15.633-52.214Zm-154.5 88.556c17.206-17.26 37.992-31.485 61.748-38.51 10.393-4.684 23.755 4.076 23.493 15.525-1.834 15.092-5.414 29.837-7.86 44.582-1.135 7.373-7.424 13.704-14.76 14.485-26.812 4.597-50.132 20.817-68.647 39.898-4.629 5.812-11.441 11.19-12.315 19.169-5.764 38.25-11.79 76.587-17.816 114.837-.786 8.24-7.86 16.133-16.42 15.526h-41.485c-9.607.607-18.079-9.02-16.943-18.561 11.965-75.72 24.017-151.18 35.808-226.9.524-7.633 6.026-15.092 13.974-15.872 10.131-.52 20.175-.26 30.568-.26 8.21 0 15.895 7.372 15.895 15.785 0 11.796-1.135 23.852-1.397 35.909 6.55-4.164 10.655-10.669 16.157-15.613Zm-1022.02-34.78c14.76-2.95 30.043-.521 44.89-1.302 8.385-1.127 17.468 4.337 18.778 12.837 1.136 7.633-1.048 15.005-1.834 22.378-11.266 70.255-22.445 140.598-33.363 210.853-.873 7.98-7.423 15.873-15.895 15.526-14.76 0-29.52.347-44.542-.26-9.345-1.041-16.157-11.71-13.712-20.73 11.703-73.031 22.97-145.715 34.76-218.746.524-7.893 2.708-17.26 10.917-20.557Zm884.726 3.642c-40.7-7.632-82.272-13.183-123.582-9.107-36.857 4.684-74.062 21.424-96.77 51.694-31.441 39.899-42.096 93.588-35.022 143.287 3.843 23.765 14.236 47.878 33.625 62.623 18.079 13.964 42.446 15.872 64.28 12.316 30.655-5.984 56.594-25.673 77.905-47.617 1.135 9.367-1.048 18.648-.524 27.668.524 8.5 8.21 16.393 16.681 15.786h27.86c8.21 0 15.11-7.546 15.634-15.526 11.79-74.158 23.494-147.883 34.935-221.782 1.66-9.28-5.677-18.3-15.022-19.342Zm-76.857 128.715c-10.917 20.47-26.2 39.118-43.406 54.99-9.87 8.154-22.446 16.654-35.809 13.965-13.188-2.776-19.389-16.48-22.445-28.189-6.813-30.618-.524-64.01 16.681-90.465 7.686-12.316 19.913-21.684 34.149-25.5 20-4.944 41.048-2.429 60.437 3.036l1.136 1.127c-2.446 23.766-7.162 47.271-10.743 71.036Zm-459.83-40.939c-.263-27.408-7.686-56.117-26.813-76.587-13.1-14.485-32.752-21.857-51.878-21.597-31.791-1.128-61.573 14.485-84.805 35.215-5.24 4.163-8.734 10.148-14.498 13.444 0-9.02.873-18.041.611-27.409.262-8.413-7.685-15.786-15.982-15.786h-27.774c-8.82 0-15.895 7.633-16.419 16.133-17.205 109.287-34.76 218.66-51.966 328.033-2.445 10.148 6.289 20.556 16.682 20.296 15.284-.26 30.83 1.04 45.94-1.128 11.964-3.296 11.702-17.173 13.624-27.321 4.454-24.026 7.423-48.138 10.13-72.51 53.888 10.494 116.509 3.295 156.684-37.47 32.839-35.735 48.123-85.261 46.463-133.313Zm-76.508 27.582c-1.66 25.153-10.742 50.567-28.21 68.868-22.708 21.597-57.206 18.648-84.98 11.189-.61-.78-1.397-2.429-1.659-3.296 4.367-23.679 6.55-47.791 11.966-71.296 15.371-25.154 33.974-50.567 60.437-64.532 9.87-4.683 23.232-3.556 30.393 5.465 12.053 15.005 13.101 35.214 12.053 53.602Zm0 0" style="fill-rule:nonzero;fill:#107bd4;fill-opacity:1;stroke-width:.101;stroke-linecap:butt;stroke-linejoin:miter;stroke:#107bd4;stroke-opacity:1;stroke-miterlimit:4" transform="matrix(.04473 0 0 .04504 86.118 -2.038)"/></svg>